/* XPM */
static const char * wavtool_xpm[] = {
"48 48 15 1",
" 	c None",
".	c #737373",
"+	c #404040",
"@	c #E0E0E0",
"#	c #ABABAB",
"$	c #000000",
"%	c #0D0D0D",
"&	c #292929",
"*	c #FFFFFF",
"=	c #D4D4D4",
"-	c #CCCCCC",
";	c #6B6B6B",
">	c #030303",
",	c #F30037",
"'	c #242424",
"           .+++++++++++++++++++++++.            ",
"           +@@@###################@$            ",
"           +@######################$            ",
"           +@#%@#%@#%@#%@#%@#%@#%@#$            ",
"           +@######################$            ",
"           +##%@#%@#%@#%@#%@#%@#%@#$            ",
"           +#######################$            ",
"           +##%@#%@#%@#%@#%@#%@#%@#$            ",
"           +#######################$            ",
"           +##%@#%@#%@#%@#%@#%@#%@#$            ",
"           +#######################$            ",
"           +##%@#%@#%@#%@#%@#%@#%@#$            ",
"           +#######################$            ",
"           +##%@#%@#%@#%@#%@#%@#%@#$            ",
"           +#######################$            ",
"           +##%@#%@#%@#%@#%@#%@#%@#$            ",
"           +#######################$            ",
"           +#####################@@$            ",
"           +@##################@@@#$            ",
"           +$$$$$$$$$$$$$$$$$$$$$$$$            ",
"           +&&&&*&&&&&*&&&&&&&&&&&&$            ",
"           +&&&*&&&&&*&&&&&&&&&&&&&$            ",
"           +&&*=====*============&&$            ",
"           +&*=&&&&*&&&&&&&&&&&&=&*$            ",
"           +*&=&&&*&&&&&&&&&&&&&=**$            ",
"           +&&=&&*&&&&&&&&&&&&&&***$            ",
"           +&&=&*&&-;&&&&&-;&&&***&$            ",
"           +&&=*&&&;;&&&&&;;&&***&&$            ",
"           +&&*&&&&&&&&&&&&&&****&&$            ",
"           +&*=&=&==&=&==&==***&=&*$            ",
"           +*&=&&&&&&&&&&&&***&&=**$            ",
"           +&&============***===***$            ",
"           +&&&&&&&&&&&&&***&&&***&$            ",
"           +&&&&&&&&&&&&***&&&***&&$            ",
"           +$$$$$$$$$$$$$$$$$$$$$$$$            ",
"           +@@####################@$            ",
"           +@>>&&##################$            ",
"           +#>&,&#*&&$#############$            ",
"           +#&&&&#$$$$#############$            ",
"           +#&,&&#################@$            ",
"           +#&&&&################@@$            ",
"           +####################@@@$            ",
"           +$$$$$$$$$$$$$$$$$$$$$$$$            ",
"           +'''$'''$'''$'''$'''$'''$            ",
"           ++++$+++$+++$+++$+++$+++$            ",
"           ++++$+++$+++$+++$+++$+++$            ",
"           ++++$+++$+++$+++$+++$+++$            ",
"           .$$$$$$$$$$$$$$$$$$$$$$$.            "};
